<?xml version="1.0" encoding="UTF-8" standalone="no"?>
<svg
   viewBox="0 0 512 448"
   version="1.1"
   id="svg4"
   sodipodi:docname="dna-solid.svg"
   inkscape:version="1.2.2 (732a01da63, 2022-12-09)"
   width="512"
   height="448"
   xmlns:inkscape="http://www.inkscape.org/namespaces/inkscape"
   xmlns:sodipodi="http://sodipodi.sourceforge.net/DTD/sodipodi-0.dtd"
   xmlns="http://www.w3.org/2000/svg"
   xmlns:svg="http://www.w3.org/2000/svg">
  <defs
     id="defs8" />
  <sodipodi:namedview
     id="namedview6"
     pagecolor="#ffffff"
     bordercolor="#000000"
     borderopacity="0.25"
     inkscape:showpageshadow="2"
     inkscape:pageopacity="0.0"
     inkscape:pagecheckerboard="0"
     inkscape:deskcolor="#d1d1d1"
     showgrid="false"
     inkscape:zoom="0.57245266"
     inkscape:cx="-129.26833"
     inkscape:cy="125.77459"
     inkscape:window-width="1920"
     inkscape:window-height="1009"
     inkscape:window-x="-8"
     inkscape:window-y="-8"
     inkscape:window-maximized="1"
     inkscape:current-layer="svg4" />
  <!--! Font Awesome Pro 6.3.0 by @fontawesome - https://fontawesome.com License - https://fontawesome.com/license (Commercial License) Copyright 2023 Fonticons, Inc. -->
  <path
     d="m 370.25403,309.69052 c 0,7.8996 -6.38216,14.28176 -14.28175,14.28176 -26.68903,0 -47.97777,-13.52304 -65.42829,-30.97356 C 278.04746,280.50219 266.66668,265.10467 256,249.57327 l -0.75872,-1.11577 c -3.61507,-5.31102 -7.18551,-10.62205 -10.66668,-15.84382 v 0 0 0 l -0.44631,-0.71408 c -1.78522,-2.67783 -3.52581,-5.31103 -5.31103,-7.94423 -6.24826,-9.32777 -12.36264,-18.20924 -18.52164,-26.46588 v 52.97638 c 3.30265,-4.37378 6.56068,-8.97072 9.86333,-13.70155 l 2.09763,3.12413 0.89261,1.33892 c 4.50768,6.7392 9.19388,13.79081 14.10324,20.84243 -8.07812,11.15762 -16.64717,21.8243 -25.75179,30.97355 -17.49515,17.40589 -38.78389,30.92893 -65.47292,30.92893 -7.89959,0 -14.28175,-6.38216 -14.28175,-14.28176 0,-7.89959 6.38216,-14.28175 14.28175,-14.28175 V 152.59123 c -7.89959,0 -14.28175,-6.38216 -14.28175,-14.28175 0,-7.8996 6.38216,-14.28176 14.28175,-14.28176 26.68903,0 47.97777,13.52304 65.42829,30.97356 12.49653,12.49653 23.87731,27.89405 34.54399,43.42545 10.66668,-15.5314 22.00283,-30.92892 34.54399,-43.42545 17.45052,-17.45052 38.73926,-30.97356 65.42829,-30.97356 7.89959,0 14.28175,6.38216 14.28175,14.28176 0,7.89959 -6.38216,14.28175 -14.28175,14.28175 v 142.81754 c 7.89959,0 14.28175,6.38216 14.28175,14.28175 z M 198.87298,275.14653 V 172.85347 c -4.73083,-4.50768 -9.50629,-8.30127 -14.28175,-11.38077 v 125.0546 c 4.77546,-3.03487 9.55092,-6.82846 14.28175,-11.38077 z M 313.12702,172.85347 v 102.29306 c 4.77546,4.50768 9.50629,8.30127 14.28175,11.38077 V 161.4727 c -4.77546,3.03487 -9.50629,6.82846 -14.28175,11.38077 z m -21.42264,24.72529 c -6.159,8.212 -12.27338,17.1381 -18.52164,26.46587 6.24826,9.32777 12.36264,18.20924 18.52164,26.46588 v -52.97638 z"
     id="path2"
     style="stroke-width:0.446305" />
</svg>
