<?xml version="1.0" encoding="UTF-8" standalone="no"?>
<svg
   viewBox="0 0 448 512"
   version="1.1"
   id="svg4"
   sodipodi:docname="dna-solid.svg"
   inkscape:version="1.2.2 (732a01da63, 2022-12-09)"
   xmlns:inkscape="http://www.inkscape.org/namespaces/inkscape"
   xmlns:sodipodi="http://sodipodi.sourceforge.net/DTD/sodipodi-0.dtd"
   xmlns="http://www.w3.org/2000/svg"
   xmlns:svg="http://www.w3.org/2000/svg">
  <defs
     id="defs8" />
  <sodipodi:namedview
     id="namedview6"
     pagecolor="#ffffff"
     bordercolor="#000000"
     borderopacity="0.25"
     inkscape:showpageshadow="2"
     inkscape:pageopacity="0.0"
     inkscape:pagecheckerboard="0"
     inkscape:deskcolor="#d1d1d1"
     showgrid="false"
     inkscape:zoom="0.57245266"
     inkscape:cx="-73.368512"
     inkscape:cy="125.77459"
     inkscape:window-width="1920"
     inkscape:window-height="1009"
     inkscape:window-x="-8"
     inkscape:window-y="-8"
     inkscape:window-maximized="1"
     inkscape:current-layer="svg4" />
  <!--! Font Awesome Pro 6.3.0 by @fontawesome - https://fontawesome.com License - https://fontawesome.com/license (Commercial License) Copyright 2023 Fonticons, Inc. -->
  <path
     d="m 309.69052,141.74597 c 7.8996,0 14.28176,6.38216 14.28176,14.28175 0,26.68903 -13.52304,47.97777 -30.97356,65.42829 C 280.50219,233.95254 265.10467,245.33332 249.57327,256 l -1.11577,0.75872 c -5.31102,3.61507 -10.62205,7.18551 -15.84382,10.66668 v 0 0 0 l -0.71408,0.44631 c -2.67783,1.78522 -5.31103,3.52581 -7.94423,5.31103 -9.32777,6.24826 -18.20924,12.36264 -26.46588,18.52164 h 52.97638 c -4.37378,-3.30265 -8.97072,-6.56068 -13.70155,-9.86333 l 3.12413,-2.09763 1.33892,-0.89261 c 6.7392,-4.50768 13.79081,-9.19388 20.84243,-14.10324 11.15762,8.07812 21.8243,16.64717 30.97355,25.75179 17.40589,17.49515 30.92893,38.78389 30.92893,65.47292 0,7.89959 -6.38216,14.28175 -14.28176,14.28175 -7.89959,0 -14.28175,-6.38216 -14.28175,-14.28175 H 152.59123 c 0,7.89959 -6.38216,14.28175 -14.28175,14.28175 -7.8996,0 -14.28176,-6.38216 -14.28176,-14.28175 0,-26.68903 13.52304,-47.97777 30.97356,-65.42829 12.49653,-12.49653 27.89405,-23.87731 43.42545,-34.54399 -15.5314,-10.66668 -30.92892,-22.00283 -43.42545,-34.54399 -17.45052,-17.45052 -30.97356,-38.73926 -30.97356,-65.42829 0,-7.89959 6.38216,-14.28175 14.28176,-14.28175 7.89959,0 14.28175,6.38216 14.28175,14.28175 h 142.81754 c 0,-7.89959 6.38216,-14.28175 14.28175,-14.28175 z M 275.14653,313.12702 H 172.85347 c -4.50768,4.73083 -8.30127,9.50629 -11.38077,14.28175 h 125.0546 c -3.03487,-4.77546 -6.82846,-9.55092 -11.38077,-14.28175 z M 172.85347,198.87298 h 102.29306 c 4.50768,-4.77546 8.30127,-9.50629 11.38077,-14.28175 H 161.4727 c 3.03487,4.77546 6.82846,9.50629 11.38077,14.28175 z m 24.72529,21.42264 c 8.212,6.159 17.1381,12.27338 26.46587,18.52164 9.32777,-6.24826 18.20924,-12.36264 26.46588,-18.52164 h -52.97638 z"
     id="path2"
     style="stroke-width:0.446305" />
</svg>
