<?xml version="1.0" encoding="UTF-8" standalone="no"?>
<svg
   viewBox="0 0 511.99997 448"
   version="1.1"
   id="svg4"
   sodipodi:docname="mountain-sun-solid.svg"
   inkscape:version="1.2.2 (732a01da63, 2022-12-09)"
   width="135.46666mm"
   height="118.53333mm"
   xmlns:inkscape="http://www.inkscape.org/namespaces/inkscape"
   xmlns:sodipodi="http://sodipodi.sourceforge.net/DTD/sodipodi-0.dtd"
   xmlns="http://www.w3.org/2000/svg"
   xmlns:svg="http://www.w3.org/2000/svg">
  <defs
     id="defs8" />
  <sodipodi:namedview
     id="namedview6"
     pagecolor="#ffffff"
     bordercolor="#000000"
     borderopacity="0.25"
     inkscape:showpageshadow="2"
     inkscape:pageopacity="0.0"
     inkscape:pagecheckerboard="0"
     inkscape:deskcolor="#d1d1d1"
     showgrid="false"
     inkscape:zoom="0.57245266"
     inkscape:cx="-129.26833"
     inkscape:cy="125.77459"
     inkscape:window-width="1920"
     inkscape:window-height="1009"
     inkscape:window-x="-8"
     inkscape:window-y="-8"
     inkscape:window-maximized="1"
     inkscape:current-layer="svg4"
     inkscape:document-units="mm" />
  <!--! Font Awesome Pro 6.3.0 by @fontawesome - https://fontawesome.com License - https://fontawesome.com/license (Commercial License) Copyright 2023 Fonticons, Inc. -->
  <path
     d="m 349.91244,186.43278 a 31.306017,31.306017 0 1 0 0,-62.61203 31.306017,31.306017 0 1 0 0,62.61203 z M 152.6454,324.17926 h 127.25896 29.34939 48.05474 c 13.22679,0 23.90997,-10.72231 23.90997,-23.90997 0,-4.38284 -1.21311,-8.68742 -3.4828,-12.44414 L 326.08073,203.1815 c -1.60443,-2.62188 -4.42197,-4.22631 -7.47431,-4.22631 -3.05233,0 -5.86988,1.60443 -7.47431,4.18718 l -18.86187,30.91469 -49.26785,-78.53897 c -2.58275,-4.14805 -7.16125,-6.65253 -12.05282,-6.65253 -4.89156,0 -9.43093,2.50448 -12.05281,6.65253 l -84.76104,135.16373 c -2.19142,3.4828 -3.3654,7.51344 -3.3654,11.62236 0,12.09195 9.78313,21.87508 21.87508,21.87508 z"
     id="path3031"
     style="stroke-width:0.391325" />
</svg>
